{
	"asset":{
		"version":"2.0",
		"generator":"Created using the official Cinema 4D glTF Exporter 1.000x284978"
	},
	"scenes":[{
		"nodes":[0,
		2]
	}],
	"meshes":[{
		"name":"Sphere",
		"primitives":[{
			"attributes":{
				"POSITION":1
			},
			"indices":0,
			"material":0
		}]
	},
	{
		"name":"Default-wire_134110008",
		"primitives":[{
			"attributes":{
				"POSITION":3
			},
			"indices":2,
			"material":1
		}]
	},
	{
		"name":"Default-wire_134006006",
		"primitives":[{
			"attributes":{
				"POSITION":5
			},
			"indices":4,
			"material":2
		}]
	},
	{
		"name":"Default-wire_006134006",
		"primitives":[{
			"attributes":{
				"POSITION":7
			},
			"indices":6,
			"material":3
		}]
	}],
	"nodes":[{
		"name":"Atom Array",
		"translation":[0.43426433205604555,
		1.0149619579315186,
		-0.6651449203491211],
		"rotation":[0.0,
		0.0,
		0.0,
		-1.0],
		"scale":[1.0,
		1.0,
		1.0],
		"children":[1]
	},
	{
		"name":"Sphere",
		"mesh":0
	},
	{
		"name":"Default",
		"translation":[-0.5769026279449463,
		1.5644587278366089,
		0.45350590348243716],
		"rotation":[-0.15030138194561006,
		0.1604101061820984,
		-0.1603587120771408,
		0.9622697830200195],
		"scale":[1.0,
		1.0,
		1.0],
		"children":[3,
		4,
		5]
	},
	{
		"name":"Default-wire_134110008",
		"mesh":1
	},
	{
		"name":"Default-wire_134006006",
		"mesh":2
	},
	{
		"name":"Default-wire_006134006",
		"mesh":3
	}],
	"accessors":[{
		"bufferView":0,
		"type":"SCALAR",
		"componentType":5123,
		"count":3168,
		"byteOffset":0,
		"min":[0],
		"max":[791]
	},
	{
		"bufferView":1,
		"type":"VEC3",
		"componentType":5126,
		"count":792,
		"byteOffset":0,
		"min":[-3.819761037826538,
		-1.4284911155700684,
		-2.8874688148498537],
		"max":[3.015190839767456,
		5.080172538757324,
		4.162668228149414]
	},
	{
		"bufferView":2,
		"type":"SCALAR",
		"componentType":5123,
		"count":196599,
		"byteOffset":0,
		"min":[0],
		"max":[33389]
	},
	{
		"bufferView":3,
		"type":"VEC3",
		"componentType":5126,
		"count":33390,
		"byteOffset":0,
		"min":[-2.192014217376709,
		-1.0171037912368775,
		-2.662358283996582],
		"max":[2.946438789367676,
		3.8580081462860109,
		1.8647637367248536]
	},
	{
		"bufferView":4,
		"type":"SCALAR",
		"componentType":5123,
		"count":196599,
		"byteOffset":0,
		"min":[0],
		"max":[34245]
	},
	{
		"bufferView":5,
		"type":"VEC3",
		"componentType":5126,
		"count":34246,
		"byteOffset":0,
		"min":[-1.9788542985916138,
		-0.05474383011460304,
		-2.1443281173706056],
		"max":[2.0558958053588869,
		5.759565353393555,
		1.3950698375701905]
	},
	{
		"bufferView":6,
		"type":"SCALAR",
		"componentType":5123,
		"count":139164,
		"byteOffset":0,
		"min":[0],
		"max":[24490]
	},
	{
		"bufferView":7,
		"type":"VEC3",
		"componentType":5126,
		"count":24491,
		"byteOffset":0,
		"min":[-2.1966073513031008,
		-1.1700708866119385,
		-2.621018171310425],
		"max":[2.94217586517334,
		5.840307235717773,
		2.0595507621765138]
	}],
	"bufferViews":[{
		"buffer":0,
		"byteOffset":0,
		"byteLength":6336,
		"target":34963
	},
	{
		"buffer":0,
		"byteOffset":6336,
		"byteLength":9504,
		"target":34962
	},
	{
		"buffer":1,
		"byteOffset":0,
		"byteLength":393198,
		"target":34963
	},
	{
		"buffer":1,
		"byteOffset":393200,
		"byteLength":400680,
		"target":34962
	},
	{
		"buffer":2,
		"byteOffset":0,
		"byteLength":393198,
		"target":34963
	},
	{
		"buffer":2,
		"byteOffset":393200,
		"byteLength":410952,
		"target":34962
	},
	{
		"buffer":3,
		"byteOffset":0,
		"byteLength":278328,
		"target":34963
	},
	{
		"buffer":3,
		"byteOffset":278328,
		"byteLength":293892,
		"target":34962
	}],
	"materials":[{
		"pbrMetallicRoughness":{
			"baseColorFactor":[0.03,
			0.03,
			0.03,
			1.0],
			"metallicFactor":1.0,
			"roughnessFactor":0.1
		},
		"emissiveFactor":[1.0,
		1.0,
		1.0],
		"alphaMode":"OPAQUE",
		"doubleSided":false,
		"name":"Mat.4"
	},
	{
		"pbrMetallicRoughness":{
			"baseColorFactor":[1.0,
			1.0,
			1.0,
			1.0],
			"metallicFactor":0.0,
			"roughnessFactor":0.5
		},
		"emissiveFactor":[0.0,
		0.0,
		0.0],
		"alphaMode":"OPAQUE",
		"doubleSided":false,
		"name":"wire_134110008"
	},
	{
		"pbrMetallicRoughness":{
			"baseColorFactor":[1.0,
			1.0,
			1.0,
			1.0],
			"metallicFactor":0.0,
			"roughnessFactor":0.5
		},
		"emissiveFactor":[0.0,
		0.0,
		0.0],
		"alphaMode":"OPAQUE",
		"doubleSided":false,
		"name":"wire_134006006"
	},
	{
		"pbrMetallicRoughness":{
			"baseColorFactor":[1.0,
			1.0,
			1.0,
			1.0],
			"metallicFactor":0.0,
			"roughnessFactor":0.5
		},
		"emissiveFactor":[0.0,
		0.0,
		0.0],
		"alphaMode":"OPAQUE",
		"doubleSided":false,
		"name":"wire_006134006"
	}],
	"buffers":[{
		"uri":"data:application/octet-stream;base64,",
		"byteLength":15840
	},
	{
		"uri":"data:application/octet-stream;base64,",
		"byteLength":793880
	},
	{
		"uri":"data:application/octet-stream;base64,",
		"byteLength":804152
	},
	{
		"uri":"data:application/octet-stream;base64,",
		"byteLength":572220
	}]
}