{
	"nodes":[{
		"name":"Default",
		"translation":[0.2186116874217987,
		0.8932718634605408,
		-0.5362681150436401],
		"scale":[1.0,
		1.0,
		1.0],
		"rotation":[0.0,
		0.0,
		0.0,
		-1.0],
		"children":[1,
		2,
		3]
	},
	{
		"name":"Default-wire_134110008",
		"mesh":0
	},
	{
		"name":"Default-wire_134006006",
		"mesh":1
	},
	{
		"name":"Default-wire_006134006",
		"mesh":2
	}],
	"asset":{
		"version":"2.0",
		"generator":"Created using the official Cinema 4D glTF Exporter 1.000x284978"
	},
	"scenes":[{
		"nodes":[0]
	}],
	"meshes":[{
		"name":"Default-wire_134110008",
		"primitives":[{
			"attributes":{
				"POSITION":1
			},
			"indices":0,
			"material":0
		}]
	},
	{
		"name":"Default-wire_134006006",
		"primitives":[{
			"attributes":{
				"POSITION":3
			},
			"indices":2,
			"material":1
		}]
	},
	{
		"name":"Default-wire_006134006",
		"primitives":[{
			"attributes":{
				"POSITION":5
			},
			"indices":4,
			"material":2
		}]
	}],
	"accessors":[{
		"bufferView":0,
		"count":196599,
		"type":"SCALAR",
		"componentType":5123,
		"max":[33389],
		"byteOffset":0,
		"min":[0]
	},
	{
		"bufferView":1,
		"count":33390,
		"type":"VEC3",
		"componentType":5126,
		"max":[2.6198458671569826,
		1.6239302158355713,
		2.3874077796936037],
		"byteOffset":0,
		"min":[-2.5186071395874025,
		-3.2511818408966066,
		-2.139714241027832]
	},
	{
		"bufferView":2,
		"count":196599,
		"type":"SCALAR",
		"componentType":5123,
		"max":[34245],
		"byteOffset":0,
		"min":[0]
	},
	{
		"bufferView":3,
		"count":34246,
		"type":"VEC3",
		"componentType":5126,
		"max":[1.7293028831481934,
		3.525487184524536,
		1.9177137613296509],
		"byteOffset":0,
		"min":[-2.3054471015930177,
		-2.2888219356536867,
		-1.621684193611145]
	},
	{
		"bufferView":4,
		"count":139164,
		"type":"SCALAR",
		"componentType":5123,
		"max":[24490],
		"byteOffset":0,
		"min":[0]
	},
	{
		"bufferView":5,
		"count":24491,
		"type":"VEC3",
		"componentType":5126,
		"max":[2.6155829429626467,
		3.606229066848755,
		2.5821948051452638],
		"byteOffset":0,
		"min":[-2.523200273513794,
		-3.404148817062378,
		-2.098374128341675]
	}],
	"bufferViews":[{
		"buffer":0,
		"byteOffset":0,
		"byteLength":393198,
		"target":34963
	},
	{
		"buffer":0,
		"byteOffset":393200,
		"byteLength":400680,
		"target":34962
	},
	{
		"buffer":1,
		"byteOffset":0,
		"byteLength":393198,
		"target":34963
	},
	{
		"buffer":1,
		"byteOffset":393200,
		"byteLength":410952,
		"target":34962
	},
	{
		"buffer":2,
		"byteOffset":0,
		"byteLength":278328,
		"target":34963
	},
	{
		"buffer":2,
		"byteOffset":278328,
		"byteLength":293892,
		"target":34962
	}],
	"buffers":[{
		"byteLength":793880,
		"uri":"data:application/octet-stream;base64,"
	},
	{
		"byteLength":804152,
		"uri":"data:application/octet-stream;base64,"
	},
	{
		"byteLength":572220,
		"uri":"data:application/octet-stream;base64,"
	}],
	"materials":[{
		"pbrMetallicRoughness":{
			"baseColorFactor":[1.0,
			0.18999999999999996,
			0.18999999999999996,
			1.0],
			"metallicFactor":0.0,
			"roughnessFactor":0.5
		},
		"emissiveFactor":[0.0,
		0.0,
		0.0],
		"alphaMode":"OPAQUE",
		"doubleSided":false,
		"name":"wire_134110008"
	},
	{
		"pbrMetallicRoughness":{
			"baseColorFactor":[0.27,
			1.0,
			0.5620000000000003,
			1.0],
			"metallicFactor":0.0,
			"roughnessFactor":0.5
		},
		"emissiveFactor":[0.0,
		0.0,
		0.0],
		"alphaMode":"OPAQUE",
		"doubleSided":false,
		"name":"wire_134006006"
	},
	{
		"pbrMetallicRoughness":{
			"baseColorFactor":[0.0,
			0.5666666666666664,
			1.0,
			1.0],
			"metallicFactor":0.0,
			"roughnessFactor":0.5
		},
		"emissiveFactor":[0.0,
		0.0,
		0.0],
		"alphaMode":"OPAQUE",
		"doubleSided":false,
		"name":"wire_006134006"
	}]
}